HIERARCHY
ROOT Hips
{
	OFFSET 0.00000 0.00000 0.00000
	CHANNELS 6 Xposition Yposition Zposition Zrotation Yrotation Xrotation 
	JOINT LHipJoint
	{
		OFFSET 0 0 0
		CHANNELS 3 Zrotation Yrotation Xrotation
		JOINT LeftUpLeg
		{
			OFFSET 1.81638 -1.86202 0.89635
			CHANNELS 3 Zrotation Yrotation Xrotation
			JOINT LeftLeg
			{
				OFFSET 2.63464 -7.23861 0.00000
				CHANNELS 3 Zrotation Yrotation Xrotation
				JOINT LeftFoot
				{
					OFFSET 2.45871 -6.75336 0.00000
					CHANNELS 3 Zrotation Yrotation Xrotation
					JOINT LeftToeBase
					{
						OFFSET 0.34235 -0.94059 2.20020
						CHANNELS 3 Zrotation Yrotation Xrotation
						End Site
						{
							OFFSET 0.00000 -0.00000 1.18611
						}
					}
				}
			}
		}
	}
	JOINT RHipJoint
	{
		OFFSET 0 0 0
		CHANNELS 3 Zrotation Yrotation Xrotation
		JOINT RightUpLeg
		{
			OFFSET -1.84405 -1.86203 0.89635
			CHANNELS 3 Zrotation Yrotation Xrotation
			JOINT RightLeg
			{
				OFFSET -2.71067 -7.44751 0.00000
				CHANNELS 3 Zrotation Yrotation Xrotation
				JOINT RightFoot
				{
					OFFSET -2.47159 -6.79060 0.00000
					CHANNELS 3 Zrotation Yrotation Xrotation
					JOINT RightToeBase
					{
						OFFSET -0.26223 -0.72048 2.36007
						CHANNELS 3 Zrotation Yrotation Xrotation
						End Site
						{
							OFFSET -0.00000 -0.00000 1.23343
						}
					}
				}
			}
		}
	}
	JOINT LowerBack
	{
		OFFSET 0 0 0
		CHANNELS 3 Zrotation Yrotation Xrotation
		JOINT Spine
		{
			OFFSET 0.02089 1.99248 -0.22512
			CHANNELS 3 Zrotation Yrotation Xrotation
			JOINT Spine1
			{
				OFFSET 0.01476 2.01356 -0.03079
				CHANNELS 3 Zrotation Yrotation Xrotation
				JOINT Neck
				{
					OFFSET 0 0 0
					CHANNELS 3 Zrotation Yrotation Xrotation
					JOINT Neck1
					{
						OFFSET 0.04846 1.65098 0.06663
						CHANNELS 3 Zrotation Yrotation Xrotation
						JOINT Head
						{
							OFFSET -0.06061 1.60634 -0.07565
							CHANNELS 3 Zrotation Yrotation Xrotation
							End Site
							{
								OFFSET -0.02954 1.73562 -0.03642
							}
						}
					}
				}
				JOINT LeftShoulder
				{
					OFFSET 0 0 0
					CHANNELS 3 Zrotation Yrotation Xrotation
					JOINT LeftArm
					{
						OFFSET 3.45234 1.47051 -0.06993
						CHANNELS 3 Zrotation Yrotation Xrotation
						JOINT LeftForeArm
						{
							OFFSET 5.49313 -0.00000 0.00000
							CHANNELS 3 Zrotation Yrotation Xrotation
							JOINT LeftHand
							{
								OFFSET 3.29037 -0.00000 0.00000
								CHANNELS 3 Zrotation Yrotation Xrotation
								JOINT LeftFingerBase
								{
									OFFSET 0 0 0
									CHANNELS 3 Zrotation Yrotation Xrotation
									JOINT LeftHandIndex1
									{
										OFFSET 0.72966 -0.00000 0.00000
										CHANNELS 3 Zrotation Yrotation Xrotation
										End Site
										{
											OFFSET 0.58827 -0.00000 0.00000
										}
									}
								}
								JOINT LThumb
								{
									OFFSET 0 0 0
									CHANNELS 3 Zrotation Yrotation Xrotation
									End Site
									{
										OFFSET 0.59725 -0.00000 0.59725
									}
								}
							}
						}
					}
				}
				JOINT RightShoulder
				{
					OFFSET 0 0 0
					CHANNELS 3 Zrotation Yrotation Xrotation
					JOINT RightArm
					{
						OFFSET -3.41935 1.44327 0.20453
						CHANNELS 3 Zrotation Yrotation Xrotation
						JOINT RightForeArm
						{
							OFFSET -5.23684 -0.00000 0.00000
							CHANNELS 3 Zrotation Yrotation Xrotation
							JOINT RightHand
							{
								OFFSET -3.38251 -0.00000 0.00000
								CHANNELS 3 Zrotation Yrotation Xrotation
								JOINT RightFingerBase
								{
									OFFSET 0 0 0
									CHANNELS 3 Zrotation Yrotation Xrotation
									JOINT RightHandIndex1
									{
										OFFSET -0.69145 -0.00000 0.00000
										CHANNELS 3 Zrotation Yrotation Xrotation
										End Site
										{
											OFFSET -0.55747 -0.00000 0.00000
										}
									}
								}
								JOINT RThumb
								{
									OFFSET 0 0 0
									CHANNELS 3 Zrotation Yrotation Xrotation
									End Site
									{
										OFFSET -0.56598 -0.00000 0.56598
									}
								}
							}
						}
					}
				}
			}
		}
	}
}
MOTION
Frames: 7
Frame Time: .0083333
-31.5002 17.7754 -3.4576 0 0 0 0 0 0 -21 0 0 0 0 0 0 0 0 0 0 0 0 0 0 21 0 0 0 0 0 0 0 0 0 0 0 0 0 0 0 0 0 0 0 0 0 0 -16 0 0 21 0 0 11 0 0 0 -8 0 0 0 0 0 0 0 0 0 0 0 0 0 0 0 0 0 0 0 0 8 0 0 0 0 0 0 0 0 0 0 0 0 0 0 0 0 0
-31.5002 17.7754 -3.4576 -122.0110 84.4446 -119.7110 0.0000 0.0000 0.0000 -7.9150 -10.4174 -11.7834 2.1629 9.1975 26.4150 0.5934 -8.6163 -14.1084 0.1967 2.8559 7.8779 0.0000 0.0000 0.0000 20.9941 4.7649 -5.3756 -0.9949 -6.3479 17.7973 0.0697 -14.1096 -19.2377 -0.2014 2.8896 -7.9716 1.4435 -1.4997 15.4823 3.4688 -1.2625 6.0634 3.0347 -0.4880 -2.2010 -0.6638 1.4017 -2.6945 -2.1986 1.8880 -6.8873 -0.5855 1.0481 -1.6643 0.0000 0.0000 0.0000 -87.1505 14.2398 22.3567 36.6500 -45.9550 -15.9879 -0.0000 0.0000 -1.6561 -3.9723 8.7052 -0.6022 -7.1250 0.0000 -0.0000 -25.8621 37.3987 5.2747 0.0000 0.0000 0.0000 71.3704 -6.4425 35.5051 -27.7330 38.8692 -9.9557 0.0000 0.0000 3.5980 -6.2814 -16.1346 1.7520 7.1250 -0.0000 -0.0000 19.8818 -45.2242 -0.1146
-31.5039 17.7560 -3.4840 -119.1220 84.4497 -116.8740 0.0000 0.0000 0.0000 -7.8575 -10.3576 -11.9945 2.2538 9.3759 26.9784 0.6246 -8.6063 -14.4311 0.0902 1.9375 5.3331 0.0000 0.0000 0.0000 21.0597 4.5325 -5.2963 -0.9741 -6.2832 17.6085 0.0753 -13.8948 -18.8532 -0.2352 3.1214 -8.6169 1.3658 -1.4731 15.6409 3.3213 -1.2419 6.0488 2.9240 -0.4786 -2.3034 -0.1458 1.5560 -2.6589 -2.1467 2.0876 -6.7204 -0.6555 1.1304 -1.6110 0.0000 -0.0000 0.0000 -86.8807 14.2360 22.2211 36.1022 -45.5833 -15.5954 -0.0000 0.0000 -1.6998 -3.8913 9.1844 -0.6220 -7.1250 0.0000 -0.0000 -25.9560 37.8375 4.9890 0.0000 -0.0000 0.0000 71.6562 -6.5704 35.3242 -28.0208 39.1353 -10.1368 0.0000 0.0000 3.1121 -5.9505 -16.7128 1.7169 7.1250 -0.0000 -0.0000 20.3945 -45.7282 -0.3825
-31.5057 17.7514 -3.5064 -117.2070 84.4507 -115.0110 0.0000 0.0000 0.0000 -7.8468 -10.3162 -12.0467 2.3022 9.4690 27.2739 0.6438 -8.5324 -14.6140 0.0279 1.0775 2.9620 0.0000 0.0000 0.0000 21.0633 4.5490 -5.3032 -0.9832 -6.3115 17.6910 0.0560 -13.7042 -18.8078 -0.2288 3.0789 -8.4986 1.0804 -1.4260 15.7107 3.2681 -1.2230 6.0887 3.0276 -0.4723 -2.2937 -0.6375 1.5096 -2.7377 -1.6111 2.0594 -6.8488 -0.4076 1.1210 -1.6482 -0.0000 0.0000 0.0000 -86.7258 14.1615 22.1739 35.5362 -45.1912 -15.1925 -0.0000 0.0000 -1.7773 -3.8348 9.2207 -0.6154 -7.1250 0.0000 -0.0000 -25.9235 37.8748 4.9555 -0.0000 0.0000 0.0000 71.8508 -6.5275 35.0630 -27.9908 39.1077 -10.1179 0.0000 0.0000 3.2818 -6.1051 -16.6030 1.7505 7.1250 -0.0000 -0.0000 20.2151 -45.6439 -0.3350
-31.5121 17.7476 -3.5320 -114.6180 84.4425 -112.3760 0.0000 0.0000 0.0000 -7.7954 -10.2527 -12.2555 2.3565 9.5722 27.6022 0.6678 -8.4952 -14.8517 0.0203 0.9189 2.5256 0.0000 0.0000 0.0000 21.0636 4.5522 -5.4737 -0.9906 -6.3346 17.7583 0.0394 -13.4388 -18.6254 -0.2298 3.0854 -8.5166 0.9646 -1.4298 15.8025 3.1513 -1.2506 6.0668 2.9775 -0.4877 -2.3645 -0.6342 1.5788 -2.7942 -1.3576 2.1654 -6.8650 -0.3298 1.1695 -1.6457 -0.0000 -0.0000 0.0000 -86.5314 14.0812 21.9838 34.9713 -44.7917 -14.7932 -0.0000 0.0000 -1.7736 -3.8397 9.6708 -0.6460 -7.1250 0.0000 -0.0000 -26.0784 38.2802 4.7043 -0.0000 -0.0000 0.0000 72.0305 -6.5882 35.1176 -28.1179 39.2245 -10.1981 0.0000 0.0000 3.2764 -6.4170 -16.4717 1.8265 7.1250 -0.0000 -0.0000 19.8885 -45.5582 -0.2854
-31.5160 17.7489 -3.5566 -110.8070 84.3984 -108.5300 0.0000 0.0000 0.0000 -7.6380 -10.1255 -12.3761 2.3970 9.6481 27.8445 0.6994 -8.5377 -15.1743 0.0248 1.0173 2.7965 0.0000 0.0000 0.0000 21.1378 4.6699 -5.6829 -1.0103 -6.3954 17.9362 -0.0185 -12.8801 -18.5433 -0.1950 2.8440 -7.8447 0.8379 -1.3612 15.8164 3.1071 -1.1843 6.0568 2.9916 -0.4573 -2.3836 -0.3109 1.6503 -2.5985 -1.3906 2.2523 -6.9896 -0.3976 1.2067 -1.7151 -0.0000 0.0000 0.0000 -86.3386 13.9847 21.9104 34.3840 -44.3673 -14.3809 -0.0000 0.0000 -1.7087 -3.8833 9.5173 -0.6430 -7.1250 0.0000 -0.0000 -26.0611 38.1383 4.8007 -0.0000 0.0000 0.0000 72.1911 -6.5804 35.1023 -28.1738 39.2758 -10.2335 0.0000 0.0000 3.2949 -6.4855 -16.2786 1.8251 7.1250 -0.0000 -0.0000 19.7549 -45.3842 -0.1951
-31.5201 17.7441 -3.5809 -107.7560 84.3665 -105.4560 0.0000 0.0000 0.0000 -7.5564 -10.0103 -12.5089 2.4394 9.7268 28.0965 0.7234 -8.5358 -15.4112 0.0162 0.8211 2.2566 0.0000 0.0000 0.0000 21.1658 4.7054 -5.8862 -1.0345 -6.4692 18.1520 -0.0681 -12.4108 -18.5069 -0.1716 2.6689 -7.3582 0.6794 -1.3175 15.8667 3.0312 -1.1556 6.0427 2.9979 -0.4456 -2.4248 -0.3048 1.6943 -2.5602 -1.1784 2.3218 -7.0551 -0.3344 1.2380 -1.7447 -0.0000 -0.0000 0.0000 -86.1399 13.9110 21.8055 33.8361 -43.9629 -13.9992 -0.0000 0.0000 -1.6449 -3.9147 9.6224 -0.6553 -7.1250 0.0000 -0.0000 -26.1214 38.2305 4.7486 -0.0000 -0.0000 0.0000 72.3624 -6.6113 35.1055 -28.2719 39.3653 -10.2957 0.0000 0.0000 3.2736 -6.5886 -16.1810 1.8436 7.1250 -0.0000 -0.0000 19.6273 -45.3045 -0.1535
